<?xml version="1.0" encoding="utf-8"?>
<!-- Svg Vector Icons : http://www.onlinewebfonts.com/icon -->
<!DOCTYPE svg PUBLIC "-//W3C//DTD SVG 1.1//EN" "http://www.w3.org/Graphics/SVG/1.1/DTD/svg11.dtd">
<svg version="1.1" xmlns="http://www.w3.org/2000/svg" xmlns:xlink="http://www.w3.org/1999/xlink" x="0px" y="0px" viewBox="0 0 1000 1000" enable-background="new 0 0 1000 1000" xml:space="preserve">
<metadata> Svg Vector Icons : http://www.onlinewebfonts.com/icon </metadata>
<g><g transform="translate(0.000000,511.000000) scale(0.100000,-0.100000)"><path d="M4679.4,4981c-383.1-69.5-821.7-321.5-1184.9-682.8c-383.1-379.1-589.5-786-657-1284.2c-25.8-200.5-13.9-400.9,41.7-637.1c21.8-91.3,39.7-168.7,39.7-172.7c0-4-29.8-13.9-63.5-19.9c-232.2-49.6-256-363.2-71.4-942.8c33.7-103.2,83.4-232.2,109.2-287.8c55.6-109.2,158.8-228.3,198.5-228.3c13.9,0,29.8-23.8,37.7-53.6c117.1-547.8,248.1-851.5,486.3-1137.3c363.2-436.7,1000.3-690.7,1546.2-619.3c817.7,109.2,1355.6,647,1558.1,1558.1c29.8,137,37.7,152.8,73.4,140.9c133-41.7,264,138.9,393,537.9c150.8,476.3,158.8,791.9,17.9,891.2l-45.7,31.8l33.8,202.5c137,813.8,71.5,1389.4-190.5,1720.8c-83.4,105.2-228.3,208.4-335.4,240.2c-67.5,17.9-99.2,43.7-158.8,129c-194.5,277.9-633.2,535.9-1046,613.3C5258.9,5018.7,4891.7,5020.7,4679.4,4981z"/><path d="M3226.5-985.3c-262-162.7-813.8-436.6-1101.6-547.8c-115.1-43.7-347.3-123.1-516-172.7c-363.2-109.2-474.4-168.7-623.2-329.5c-176.6-188.6-287.8-462.5-327.5-801.8l-17.9-158.8l111.1-105.2c954.7-895.2,2062.2-1433,3368.2-1635.5c375.1-57.5,1149.2-71.4,1538.2-27.8c726.4,83.3,1369.5,266,1998.7,567.6c597.4,285.8,1036.1,583.5,1548.1,1048c154.8,140.9,160.8,148.9,152.8,218.3c-65.5,502.1-170.7,754.2-402.9,960.7c-133,121.1-254,176.6-551.8,262c-561.7,160.8-1109.5,406.9-1647.4,738.3l-202.4,125l-19.9-63.5c-657-2086-883.2-2792.6-915-2848.2c-7.9-15.9-89.3,192.5-194.5,492.2l-182.6,518l47.6,63.5c158.8,216.4,309.6,565.7,309.6,722.5c0,208.4-121.1,351.3-347.3,412.8c-190.5,51.6-466.4,33.7-615.3-39.7c-317.6-154.8-299.7-535.9,47.6-1050l77.4-115.1l-45.6-123.1c-23.8-65.5-105.2-297.7-180.6-512.1c-75.4-216.3-140.9-393-146.9-393c-6,0-206.4,619.3-444.6,1375.4c-240.2,754.2-448.6,1415.2-466.4,1464.8l-31.8,91.3L3226.5-985.3z"/></g></g>
</svg>