<svg xmlns="http://www.w3.org/2000/svg" viewBox="0 0 512 512"><polygon points="208 48.02 60.4 48.02 208 156.19 208 48.02"/><path d="M496,48h-8.87L289.91,192H288V48H224V187.6L40,53.26V24A16,16,0,0,0,8,24V500a4,4,0,0,0,4,4H36a4,4,0,0,0,4-4V408H50.36L224,280.08V408h64V274.21L469.6,408H496a7.78,7.78,0,0,0,1.61-.17,7.46,7.46,0,0,0,1.5-.46,8,8,0,0,0,4.73-5.76A8.53,8.53,0,0,0,504,400v-6.46L317.33,256H504V192H344.32L504,75.33V56A8,8,0,0,0,496,48ZM40,176h86.66L40,112.44V92.89L175.64,192H40Zm0,199.82V357.66L156.49,272H40V256H202.63Z"/><polygon points="304 48.02 304 163.9 461.91 48.02 304 48.02"/><polygon points="504 373.62 504 272.02 365.82 272.02 504 373.62"/><polygon points="504 176.03 504 96.53 395.65 176.03 504 176.03"/><polygon points="304 408.02 442.71 408.02 304 306.03 304 408.02"/><polygon points="208 408.02 208 313.75 79.6 408.02 208 408.02"/></svg>